<mxfile host="app.diagrams.net" modified="2022-09-05T17:16:36.104Z" agent="5.0 (Macintosh; Intel Mac OS X 10_15_7) AppleWebKit/537.36 (KHTML, like Gecko) Chrome/104.0.0.0 Safari/537.36" etag="-GSi9sJtBAunMzDEMWEh" version="20.2.8" type="github">
  <diagram id="cAOsAnPpxSTJ4OME0NVT" name="entorno-biometrico-facial">
    <mxGraphModel dx="1426" dy="-299" grid="1" gridSize="10" guides="1" tooltips="1" connect="1" arrows="1" fold="1" page="1" pageScale="1" pageWidth="850" pageHeight="1100" math="0" shadow="0">
      <root>
        <mxCell id="0" />
        <mxCell id="1" parent="0" />
        <mxCell id="MRs0qL_eOpBG9POuit-E-8" value="" style="ellipse;whiteSpace=wrap;html=1;aspect=fixed;strokeColor=none;fillColor=#d5e8d4;opacity=80;" vertex="1" parent="1">
          <mxGeometry x="100" y="1280" width="420" height="420" as="geometry" />
        </mxCell>
        <mxCell id="MRs0qL_eOpBG9POuit-E-7" value="" style="ellipse;shape=cloud;whiteSpace=wrap;html=1;fillColor=#dae8fc;strokeColor=none;" vertex="1" parent="1">
          <mxGeometry x="500" y="1210" width="320" height="240" as="geometry" />
        </mxCell>
        <mxCell id="MioIM7X3Ic0pk1cOMyed-9" value="" style="group" parent="1" vertex="1" connectable="0">
          <mxGeometry x="600" y="1270" width="130" height="145" as="geometry" />
        </mxCell>
        <mxCell id="MioIM7X3Ic0pk1cOMyed-1" value="" style="fontColor=#0066CC;verticalAlign=top;verticalLabelPosition=bottom;labelPosition=center;align=center;html=1;outlineConnect=0;fillColor=#CCCCCC;strokeColor=#6881B3;gradientColor=none;gradientDirection=north;strokeWidth=2;shape=mxgraph.networks.tape_storage;" parent="MioIM7X3Ic0pk1cOMyed-9" vertex="1">
          <mxGeometry x="17.5" width="95" height="85" as="geometry" />
        </mxCell>
        <mxCell id="MioIM7X3Ic0pk1cOMyed-8" value="SERVIDOR WEB&amp;nbsp;&lt;br&gt;Y BASE DE DATOS&lt;br&gt;PEL" style="text;html=1;align=center;verticalAlign=middle;resizable=0;points=[];autosize=1;strokeColor=none;fillColor=none;" parent="MioIM7X3Ic0pk1cOMyed-9" vertex="1">
          <mxGeometry y="85" width="130" height="60" as="geometry" />
        </mxCell>
        <mxCell id="MioIM7X3Ic0pk1cOMyed-10" value="" style="group" parent="1" vertex="1" connectable="0">
          <mxGeometry x="360" y="1370" width="130" height="157.5" as="geometry" />
        </mxCell>
        <mxCell id="MioIM7X3Ic0pk1cOMyed-3" value="" style="fontColor=#0066CC;verticalAlign=top;verticalLabelPosition=bottom;labelPosition=center;align=center;html=1;outlineConnect=0;fillColor=#CCCCCC;strokeColor=#6881B3;gradientColor=none;gradientDirection=north;strokeWidth=2;shape=mxgraph.networks.pc;" parent="MioIM7X3Ic0pk1cOMyed-10" vertex="1">
          <mxGeometry x="10" y="12.5" width="110" height="75" as="geometry" />
        </mxCell>
        <mxCell id="MioIM7X3Ic0pk1cOMyed-12" value="" style="group" parent="MioIM7X3Ic0pk1cOMyed-10" vertex="1" connectable="0">
          <mxGeometry y="105" width="130" height="52.5" as="geometry" />
        </mxCell>
        <mxCell id="MioIM7X3Ic0pk1cOMyed-7" value="PÁGINA PEL" style="text;html=1;align=center;verticalAlign=middle;resizable=0;points=[];autosize=1;strokeColor=none;fillColor=none;" parent="MioIM7X3Ic0pk1cOMyed-12" vertex="1">
          <mxGeometry x="20" width="90" height="30" as="geometry" />
        </mxCell>
        <mxCell id="MioIM7X3Ic0pk1cOMyed-11" value="" style="group" parent="1" vertex="1" connectable="0">
          <mxGeometry x="150" y="1530" width="100" height="110" as="geometry" />
        </mxCell>
        <mxCell id="MioIM7X3Ic0pk1cOMyed-4" value="" style="fontColor=#0066CC;verticalAlign=top;verticalLabelPosition=bottom;labelPosition=center;align=center;html=1;outlineConnect=0;fillColor=#CCCCCC;strokeColor=#6881B3;gradientColor=none;gradientDirection=north;strokeWidth=2;shape=mxgraph.networks.tablet;" parent="MioIM7X3Ic0pk1cOMyed-11" vertex="1">
          <mxGeometry width="100" height="70" as="geometry" />
        </mxCell>
        <mxCell id="MioIM7X3Ic0pk1cOMyed-5" value="BIOMÉTRICO&lt;br&gt;FACIAL" style="text;html=1;align=center;verticalAlign=middle;resizable=0;points=[];autosize=1;strokeColor=none;fillColor=none;" parent="MioIM7X3Ic0pk1cOMyed-11" vertex="1">
          <mxGeometry y="70" width="100" height="40" as="geometry" />
        </mxCell>
        <mxCell id="MRs0qL_eOpBG9POuit-E-2" style="edgeStyle=orthogonalEdgeStyle;curved=1;rounded=0;orthogonalLoop=1;jettySize=auto;html=1;exitX=0.5;exitY=0;exitDx=0;exitDy=0;exitPerimeter=0;entryX=0;entryY=0.5;entryDx=0;entryDy=0;entryPerimeter=0;startArrow=classic;startFill=1;" edge="1" parent="1" source="MioIM7X3Ic0pk1cOMyed-4" target="MioIM7X3Ic0pk1cOMyed-3">
          <mxGeometry relative="1" as="geometry" />
        </mxCell>
        <mxCell id="MRs0qL_eOpBG9POuit-E-3" style="edgeStyle=orthogonalEdgeStyle;curved=1;rounded=0;orthogonalLoop=1;jettySize=auto;html=1;exitX=1;exitY=0.5;exitDx=0;exitDy=0;exitPerimeter=0;entryX=0.5;entryY=1.1;entryDx=0;entryDy=0;entryPerimeter=0;startArrow=classic;startFill=1;" edge="1" parent="1" source="MioIM7X3Ic0pk1cOMyed-4" target="MioIM7X3Ic0pk1cOMyed-7">
          <mxGeometry relative="1" as="geometry">
            <mxPoint x="425" y="1527.5" as="targetPoint" />
          </mxGeometry>
        </mxCell>
        <mxCell id="MRs0qL_eOpBG9POuit-E-4" style="edgeStyle=orthogonalEdgeStyle;curved=1;rounded=0;orthogonalLoop=1;jettySize=auto;html=1;exitX=0.5;exitY=0.07;exitDx=0;exitDy=0;exitPerimeter=0;entryX=0.5;entryY=0;entryDx=0;entryDy=0;entryPerimeter=0;startArrow=classicThin;startFill=1;" edge="1" parent="1" source="MioIM7X3Ic0pk1cOMyed-3" target="MioIM7X3Ic0pk1cOMyed-1">
          <mxGeometry relative="1" as="geometry">
            <Array as="points">
              <mxPoint x="425" y="1220" />
              <mxPoint x="665" y="1220" />
            </Array>
          </mxGeometry>
        </mxCell>
        <mxCell id="MRs0qL_eOpBG9POuit-E-5" style="edgeStyle=orthogonalEdgeStyle;curved=1;rounded=0;orthogonalLoop=1;jettySize=auto;html=1;exitX=0.95;exitY=1;exitDx=0;exitDy=0;exitPerimeter=0;entryX=0.577;entryY=1;entryDx=0;entryDy=0;entryPerimeter=0;startArrow=classic;startFill=1;" edge="1" parent="1" source="MioIM7X3Ic0pk1cOMyed-3" target="MioIM7X3Ic0pk1cOMyed-8">
          <mxGeometry relative="1" as="geometry">
            <Array as="points">
              <mxPoint x="475" y="1490" />
              <mxPoint x="675" y="1490" />
            </Array>
          </mxGeometry>
        </mxCell>
        <mxCell id="MRs0qL_eOpBG9POuit-E-9" value="ENTORNO LOCAL" style="text;html=1;align=center;verticalAlign=middle;resizable=0;points=[];autosize=1;strokeColor=none;fillColor=#f5f5f5;fontStyle=1;fontColor=#333333;" vertex="1" parent="1">
          <mxGeometry x="262" y="1640" width="130" height="30" as="geometry" />
        </mxCell>
        <mxCell id="MRs0qL_eOpBG9POuit-E-10" value="INTERNET" style="text;html=1;align=center;verticalAlign=middle;resizable=0;points=[];autosize=1;strokeColor=none;fillColor=#f5f5f5;fontStyle=1;fontColor=#333333;" vertex="1" parent="1">
          <mxGeometry x="710" y="1280" width="80" height="30" as="geometry" />
        </mxCell>
        <mxCell id="MRs0qL_eOpBG9POuit-E-11" value="Registro de ingreso y salidas de los contactos en PEL" style="text;html=1;strokeColor=none;fillColor=none;align=center;verticalAlign=middle;whiteSpace=wrap;rounded=0;opacity=80;" vertex="1" parent="1">
          <mxGeometry x="480" y="1170" width="140" height="30" as="geometry" />
        </mxCell>
        <mxCell id="MRs0qL_eOpBG9POuit-E-13" value="PUERTO:3000&lt;br&gt;&lt;br&gt;&lt;div style=&quot;text-align: left;&quot;&gt;&lt;span style=&quot;background-color: initial;&quot;&gt;ESCUCHAR EVENTOS:&lt;/span&gt;&lt;/div&gt;&lt;div style=&quot;text-align: left;&quot;&gt;&lt;span style=&quot;background-color: initial; font-weight: normal;&quot;&gt;- Registro&lt;/span&gt;&lt;/div&gt;&lt;div style=&quot;text-align: left;&quot;&gt;&lt;span style=&quot;background-color: initial; font-weight: normal;&quot;&gt;- Ingreso o Salidas&lt;/span&gt;&lt;/div&gt;&lt;div style=&quot;text-align: left;&quot;&gt;&lt;span style=&quot;background-color: initial; font-weight: normal;&quot;&gt;&lt;br&gt;&lt;/span&gt;&lt;/div&gt;&lt;div style=&quot;text-align: left;&quot;&gt;&lt;div&gt;&lt;span style=&quot;background-color: initial;&quot;&gt;ENVIAR EVENTOS:&lt;/span&gt;&lt;/div&gt;&lt;div&gt;&lt;span style=&quot;background-color: initial; font-weight: normal;&quot;&gt;- Ingreso y salidas&lt;/span&gt;&lt;/div&gt;&lt;/div&gt;&lt;div style=&quot;text-align: left;&quot;&gt;&lt;br&gt;&lt;/div&gt;&lt;div style=&quot;text-align: left;&quot;&gt;&lt;br&gt;&lt;/div&gt;" style="text;html=1;strokeColor=#666666;fillColor=#f5f5f5;align=center;verticalAlign=middle;whiteSpace=wrap;rounded=0;opacity=80;fontColor=#333333;fontStyle=1" vertex="1" parent="1">
          <mxGeometry x="252" y="1215" width="140" height="160" as="geometry" />
        </mxCell>
        <mxCell id="MRs0qL_eOpBG9POuit-E-14" value="PUERTO:511211&lt;br&gt;&lt;br&gt;&lt;div style=&quot;text-align: left;&quot;&gt;&lt;span style=&quot;background-color: initial;&quot;&gt;ENVIAR EVENTOS:&lt;/span&gt;&lt;/div&gt;&lt;div style=&quot;text-align: left;&quot;&gt;&lt;span style=&quot;background-color: initial; font-weight: normal;&quot;&gt;- Ingreso y salidas&lt;/span&gt;&lt;/div&gt;&lt;div style=&quot;text-align: left;&quot;&gt;&lt;br&gt;&lt;/div&gt;&lt;div style=&quot;text-align: left;&quot;&gt;&lt;div&gt;&lt;span style=&quot;background-color: initial;&quot;&gt;ESCUCHA EVENTOS:&lt;/span&gt;&lt;/div&gt;&lt;div&gt;&lt;span style=&quot;background-color: initial; font-weight: normal;&quot;&gt;- Ingreso y salidas&lt;/span&gt;&lt;/div&gt;&lt;div&gt;&lt;span style=&quot;background-color: initial; font-weight: normal;&quot;&gt;- Registro&lt;/span&gt;&lt;/div&gt;&lt;/div&gt;" style="text;html=1;strokeColor=#666666;fillColor=#f5f5f5;align=center;verticalAlign=middle;whiteSpace=wrap;rounded=0;opacity=80;fontColor=#333333;fontStyle=1" vertex="1" parent="1">
          <mxGeometry x="40" y="1390" width="140" height="125" as="geometry" />
        </mxCell>
        <mxCell id="MRs0qL_eOpBG9POuit-E-15" value="Envio de envento de registro en PEL" style="text;html=1;strokeColor=none;fillColor=none;align=center;verticalAlign=middle;whiteSpace=wrap;rounded=0;opacity=80;" vertex="1" parent="1">
          <mxGeometry x="534" y="1495" width="140" height="30" as="geometry" />
        </mxCell>
        <mxCell id="MRs0qL_eOpBG9POuit-E-16" value="Gateway server&lt;br&gt;&lt;br&gt;Servidor local, en el puerto 3000" style="whiteSpace=wrap;html=1;aspect=fixed;strokeColor=none;fillColor=#f8cecc;opacity=80;align=left;fontStyle=1;fontColor=#FF0000;" vertex="1" parent="1">
          <mxGeometry x="265" y="1450" width="95" height="95" as="geometry" />
        </mxCell>
      </root>
    </mxGraphModel>
  </diagram>
</mxfile>
